<svg version="1.1" xmlns="http://www.w3.org/2000/svg" xmlns:xlink="http://www.w3.org/1999/xlink" width="250" height="250" viewBox="0,0,250,250"><defs><radialGradient cx="240" cy="180" r="125" gradientUnits="userSpaceOnUse" id="color-1"><stop offset="0" stop-color="#000000" stop-opacity="0.30196"/><stop offset="1" stop-color="#000000" stop-opacity="0"/></radialGradient></defs><g transform="translate(-115,-55)"><g data-paper-data="{&quot;isPaintingLayer&quot;:true}" fill-rule="nonzero" stroke="none" stroke-linecap="butt" stroke-linejoin="miter" stroke-miterlimit="10" stroke-dasharray="" stroke-dashoffset="0" style="mix-blend-mode: normal"><path d="M115,180c0,-69.0356 55.9644,-125 125,-125c69.0356,0 125,55.9644 125,125c0,69.0356 -55.9644,125 -125,125c-69.0356,0 -125,-55.9644 -125,-125z" fill="url(#color-1)" stroke-width="0"/><path d="M165,130.5c0,-13.80712 11.19288,-25 25,-25c13.80712,0 25,11.19288 25,25c0,13.80712 -11.19288,25 -25,25c-13.80712,0 -25,-11.19288 -25,-25z" fill="#ffffff" stroke-width="0"/><path d="M265,130.5c0,-13.80712 11.19288,-25 25,-25c13.80712,0 25,11.19288 25,25c0,13.80712 -11.19288,25 -25,25c-13.80712,0 -25,-11.19288 -25,-25z" fill="#ffffff" stroke-width="0"/><path d="M165,229.50001c0,-13.80712 11.19288,-25 25,-25c13.80712,0 25,11.19288 25,25c0,13.80712 -11.19288,25 -25,25c-13.80712,0 -25,-11.19288 -25,-25z" fill="#ffffff" stroke-width="0"/><path d="M265,229.50001c0,-13.80712 11.19288,-25 25,-25c13.80712,0 25,11.19288 25,25c0,13.80712 -11.19288,25 -25,25c-13.80712,0 -25,-11.19288 -25,-25z" fill="#ffffff" stroke-width="0"/><path d="M190,254.50001v-149h100v149z" fill="#ffffff" stroke-width="0"/><path d="M165,130.5h150v99h-150z" fill="#ffffff" stroke-width="0"/><path d="M177.25268,187.88361c0,-30.51831 21.90226,-56.01394 50.81268,-61.60335v-16.9112l45.96988,26.35888l-45.96988,26.35888v-15.48189c-17.90822,5.18611 -31.04351,21.72235 -31.04351,41.27933c0,23.69795 19.28021,42.97816 42.97816,42.97816c23.69795,0 42.97816,-19.28021 42.97816,-42.97816c0,-6.38281 -1.36276,-12.52112 -4.05136,-18.24561l17.89372,-8.40453c3.93274,8.37356 5.9268,17.33953 5.9268,26.64949c-0.00066,34.59867 -28.14931,62.74732 -62.74798,62.74732c-34.59867,0 -62.74666,-28.14865 -62.74666,-62.74732z" data-paper-data="{&quot;index&quot;:null}" fill="#f2fff4" stroke-width="1"/></g></g></svg>