<svg version="1.1" xmlns="http://www.w3.org/2000/svg" xmlns:xlink="http://www.w3.org/1999/xlink" width="250" height="250" viewBox="0,0,250,250"><defs><radialGradient cx="240" cy="180" r="125" gradientUnits="userSpaceOnUse" id="color-1"><stop offset="0" stop-color="#000000" stop-opacity="0.30196"/><stop offset="1" stop-color="#000000" stop-opacity="0"/></radialGradient></defs><g transform="translate(-115,-55)"><g data-paper-data="{&quot;isPaintingLayer&quot;:true}" fill-rule="nonzero" stroke="none" stroke-width="0" stroke-linecap="butt" stroke-linejoin="miter" stroke-miterlimit="10" stroke-dasharray="" stroke-dashoffset="0" style="mix-blend-mode: normal"><path d="M115,180c0,-69.0356 55.9644,-125 125,-125c69.0356,0 125,55.9644 125,125c0,69.0356 -55.9644,125 -125,125c-69.0356,0 -125,-55.9644 -125,-125z" fill="url(#color-1)"/><path d="M165,130.5c0,-13.80712 11.19288,-25 25,-25c13.80712,0 25,11.19288 25,25c0,13.80712 -11.19288,25 -25,25c-13.80712,0 -25,-11.19288 -25,-25z" fill="#fcfffd"/><path d="M265,130.5c0,-13.80712 11.19288,-25 25,-25c13.80712,0 25,11.19288 25,25c0,13.80712 -11.19288,25 -25,25c-13.80712,0 -25,-11.19288 -25,-25z" fill="#fcfffd"/><path d="M165,229.50001c0,-13.80712 11.19288,-25 25,-25c13.80712,0 25,11.19288 25,25c0,13.80712 -11.19288,25 -25,25c-13.80712,0 -25,-11.19288 -25,-25z" fill="#fcfffd"/><path d="M265,229.50001c0,-13.80712 11.19288,-25 25,-25c13.80712,0 25,11.19288 25,25c0,13.80712 -11.19288,25 -25,25c-13.80712,0 -25,-11.19288 -25,-25z" fill="#fcfffd"/><path d="M190,254.50001v-149h100v149z" fill="#fcfffd"/><path d="M165,130.5h150v99h-150z" fill="#fcfffd"/><path d="M215,217.25v-74.5l50,37.10809z" fill="#00cc1b"/></g></g></svg>