<svg version="1.1" xmlns="http://www.w3.org/2000/svg" xmlns:xlink="http://www.w3.org/1999/xlink" width="250" height="250" viewBox="0,0,250,250"><defs><radialGradient cx="240" cy="180" r="125" gradientUnits="userSpaceOnUse" id="color-1"><stop offset="0" stop-color="#000000" stop-opacity="0.30196"/><stop offset="1" stop-color="#000000" stop-opacity="0"/></radialGradient></defs><g transform="translate(-115,-55)"><g data-paper-data="{&quot;isPaintingLayer&quot;:true}" fill-rule="nonzero" stroke="none" stroke-linecap="butt" stroke-linejoin="miter" stroke-miterlimit="10" stroke-dasharray="" stroke-dashoffset="0" style="mix-blend-mode: normal"><path d="M115,180c0,-69.0356 55.9644,-125 125,-125c69.0356,0 125,55.9644 125,125c0,69.0356 -55.9644,125 -125,125c-69.0356,0 -125,-55.9644 -125,-125z" fill="url(#color-1)" stroke-width="0"/><path d="M165,130.5c0,-13.80712 11.19288,-25 25,-25c13.80712,0 25,11.19288 25,25c0,13.80712 -11.19288,25 -25,25c-13.80712,0 -25,-11.19288 -25,-25z" fill="#ffffff" stroke-width="0"/><path d="M265,130.5c0,-13.80712 11.19288,-25 25,-25c13.80712,0 25,11.19288 25,25c0,13.80712 -11.19288,25 -25,25c-13.80712,0 -25,-11.19288 -25,-25z" fill="#ffffff" stroke-width="0"/><path d="M165,229.50001c0,-13.80712 11.19288,-25 25,-25c13.80712,0 25,11.19288 25,25c0,13.80712 -11.19288,25 -25,25c-13.80712,0 -25,-11.19288 -25,-25z" fill="#ffffff" stroke-width="0"/><path d="M265,229.50001c0,-13.80712 11.19288,-25 25,-25c13.80712,0 25,11.19288 25,25c0,13.80712 -11.19288,25 -25,25c-13.80712,0 -25,-11.19288 -25,-25z" fill="#ffffff" stroke-width="0"/><path d="M190,254.50001v-149h100v149z" fill="#ffffff" stroke-width="0"/><path d="M165,130.5h150v99h-150z" fill="#ffffff" stroke-width="0"/><path d="M240.00943,128.6433c2.96211,0 5.84564,0.2664 8.67062,0.74787l1.37988,14.60668c2.92164,0.81437 5.68678,1.95301 8.27324,3.41202l11.28808,-9.32483c4.76822,3.37521 8.9423,7.52474 12.31772,12.2921l-9.3483,11.28808c1.45725,2.58345 2.62123,5.35547 3.43549,8.27323l14.58321,1.37887c0.48178,2.82563 0.74786,5.73068 0.74786,8.69387c0,2.96813 -0.26445,5.86351 -0.74786,8.69387l-14.58321,1.37893c-0.81415,2.91776 -1.97822,5.68979 -3.43549,8.27324l9.32483,11.28809c-3.36875,4.75487 -7.51485,8.92421 -12.26972,12.29296l-11.31133,-9.34829c-2.58819,1.46028 -5.34945,2.62076 -8.27323,3.43549l-1.37886,14.60667c-2.82498,0.48154 -5.70852,0.72455 -8.67063,0.72455c-2.96211,0 -5.86889,-0.24304 -8.69387,-0.72455l-1.37886,-14.60667c-2.92379,-0.8148 -5.68505,-1.9752 -8.27323,-3.43548l-11.31133,9.34829c-4.75509,-3.36854 -8.90118,-7.53787 -12.26972,-12.29296l9.32483,-11.28809c-1.45725,-2.58345 -2.62123,-5.35548 -3.43548,-8.27323l-14.58343,-1.37893c-0.48341,-2.83036 -0.74786,-5.72574 -0.74786,-8.69387c0,-2.96297 0.26611,-5.86803 0.74786,-8.69387l14.58343,-1.37887c0.81415,-2.91776 1.97822,-5.68978 3.43549,-8.27323l-9.34829,-11.28808c3.37456,-4.76736 7.54842,-8.91689 12.31707,-12.2921l11.28873,9.32483c2.58646,-1.45892 5.35159,-2.59763 8.27323,-3.41202l1.37772,-14.60668c2.82498,-0.48147 5.73177,-0.74787 8.69388,-0.74787zM220.45057,180.01283c0,10.80179 8.75953,19.56132 19.56132,19.56132c10.80179,0 19.53785,-8.75953 19.53785,-19.56132c0,-10.80179 -8.73606,-19.56132 -19.53785,-19.56132c-10.80179,0 -19.56132,8.75953 -19.56132,19.56132z" fill="#808080" stroke-width="1"/></g></g></svg>