<svg version="1.1" xmlns="http://www.w3.org/2000/svg" xmlns:xlink="http://www.w3.org/1999/xlink" width="1200" height="899.32262" viewBox="0,0,1200,899.32262"><g transform="translate(-50,-350.33868)"><g data-paper-data="{&quot;isPaintingLayer&quot;:true}" fill-rule="nonzero" stroke-linejoin="miter" stroke-miterlimit="10" stroke-dasharray="" stroke-dashoffset="0" style="mix-blend-mode: normal"><path d="M50,375.33868c0,-13.80712 11.19288,-25 25,-25c13.80712,0 25,11.19288 25,25c0,13.80712 -11.19288,25 -25,25c-13.80712,0 -25,-11.19288 -25,-25z" fill="#f2f2f2" stroke="none" stroke-width="0" stroke-linecap="butt"/><path d="M1200,375.33868c0,-13.80712 11.19288,-25 25,-25c13.80712,0 25,11.19288 25,25c0,13.80712 -11.19288,25 -25,25c-13.80712,0 -25,-11.19288 -25,-25z" fill="#f2aaaa" stroke="none" stroke-width="0" stroke-linecap="butt"/><path d="M50,1224.6613c0,-13.80712 11.19288,-25 25,-25c13.80712,0 25,11.19288 25,25c0,13.80712 -11.19288,25 -25,25c-13.80712,0 -25,-11.19288 -25,-25z" fill="#ffffff" stroke="none" stroke-width="0" stroke-linecap="butt"/><path d="M1200,1224.6613c0,-13.80712 11.19288,-25 25,-25c13.80712,0 25,11.19288 25,25c0,13.80712 -11.19288,25 -25,25c-13.80712,0 -25,-11.19288 -25,-25z" fill="#ffffff" stroke="none" stroke-width="0" stroke-linecap="butt"/><path d="M75,1249.6613v-899.32258h1150v899.32258z" fill="#ffffff" stroke="none" stroke-width="0" stroke-linecap="butt"/><path d="M50,375.33868h1200v849.32258h-1200c0,0 0,-474.39247 0,-612.66129c0,-93.94477 0,-236.66129 0,-236.66129z" fill="#ffffff" stroke="none" stroke-width="0" stroke-linecap="butt"/><path d="M75,1249.66129v-899.32258h1150v899.32258z" fill="#ffffff" stroke="none" stroke-width="0" stroke-linecap="butt"/><path d="M75,379.66126v-29.32258h1150v29.32258z" fill="#f2f2f2" stroke="none" stroke-width="0" stroke-linecap="butt"/><path d="M50,375.33868h1200v74.32258h-1200z" fill="#f2f2f2" stroke="none" stroke-width="0" stroke-linecap="butt"/><path d="M1250,375.33868v74.32258z" fill="#f2f2f2" stroke="none" stroke-width="0" stroke-linecap="butt"/><path d="M1150,375.33868h100v74.32258h-100z" fill="#f2aaaa" stroke="none" stroke-width="0" stroke-linecap="butt"/><path d="M1150,378.66126v-28.32258h75v28.32258z" fill="#f2aaaa" stroke="none" stroke-width="0" stroke-linecap="butt"/><path d="M1179,378.99997l44,44" fill="none" stroke="#ffffff" stroke-width="10" stroke-linecap="round"/><path d="M1223,378.99997l-44,44" data-paper-data="{&quot;index&quot;:null}" fill="none" stroke="#ffffff" stroke-width="10" stroke-linecap="round"/></g></g></svg>